<?xml version="1.0" encoding="UTF-8"?>
<!-- Do not edit this file with editors other than draw.io -->
<!DOCTYPE svg PUBLIC "-//W3C//DTD SVG 1.1//EN" "http://www.w3.org/Graphics/SVG/1.1/DTD/svg11.dtd">
<svg xmlns="http://www.w3.org/2000/svg" xmlns:xlink="http://www.w3.org/1999/xlink" version="1.1" width="696px" height="336px" viewBox="-0.5 -0.5 696 336" content="&lt;mxfile host=&quot;Electron&quot; modified=&quot;2026-06-14T10:32:12.943Z&quot; agent=&quot;Mozilla/5.0 (Windows NT 10.0; Win64; x64) AppleWebKit/537.36 (KHTML, like Gecko) draw.io/21.5.0 Chrome/112.0.5615.204 Electron/24.5.1 Safari/537.36&quot; etag=&quot;WYHsR7PLga-LSi81kBK5&quot; version=&quot;21.5.0&quot; type=&quot;device&quot;&gt;&lt;diagram name=&quot;第 1 页&quot; id=&quot;r4ML8feqZB2jlOduJIig&quot;&gt;5Ztdb5swFIZ/jS8rYRsScgkp6aR9Sp20y8kCN7A5OHKcJtmvHxRIgmlqB7WuNl/VHOAY3sf443UD8Hy1vxNknX/mGWUAedke4FuAEIRhUP2pI4cmMglxE1iKImsvOgXuiz+0DXptdFtkdNO7UHLOZLHuB1NeljSVvRgRgu/6lz1w1q91TZZ0ELhPCRtGfxSZzJtoiKan+AdaLPOuZjiZNWdWpLu4fZNNTjK+OwvhBOC54Fw2pdV+TlktXqdLc9/iwtnjgwlaSpMbPt7w3d2n70j+/BrSX18CyHb7mzbLI2Hb9oXbh5WHTgFaZlEtZHWUMrLZFCnAcS5XrArAqij4tsxoXYlXHTW302yg6ukx4fHlq1ZD+YpKcagu2Z3kDVrJ8jNlu5igjMjisZ+etJSXx3THGr7xoqoYeW2LDNs0h/5hl2DDtyKl7T3nYippIOrngRMlkSRiSeUgUVU4e+lT6InVFdywa9y0ghuTmyiJkF1yvnPkdIKbkkNeP9Hx2BK5wDVyWsGNyfnv21tOnCOnE9yYnDJeHudllshNnSOnE9yUHFYHTN8uudA1clrBjcmpA6Y6SX1jcjPnyOkENyXne5qpzhuT6/oKd9D5ykA3mlz4vjMU6NxCXKu4KbpA7Xdtf3TINXRaxY3RKR2v7RUddM5G0Spuim6iDnW2O0znfBSt4sbolDHT9poOOmekaBU3RqcOmpYXddA5J0WruCm6qTJoItvTFOesFK3ixujeecsAOuelDJznsV+daoRi2+icM1O0io+2ni3bYN1zO4ROp/hY79m3vK5DzrkpWsXHms+2O8yOlEPodIqPdZ/x1DI659wUreLG6NRB03aH6ZybolV87M4BtrwkR865KVrFx+4c2J5h+tdNU0peVsE4I5v8iRV8CeJGCv6bzjnj4ikRXiw8b7H4B/C+2n8dqXMi27sL/nVTGUfwvtoOxFQ1VW3jfcYLTQIQQhBOQTIFUVSX64IH4mp8jUHig/gWhEkdDBGIZyCZgDAC0RwkMxDFYBYOGoike9lvCH30bat5KBhTQoQVy7Lu8SvutIrHj1TIIiUsak+siiyrq4l3eSHp/ZqkdZ07QdYXhoQ6Ad1f26y6zxpf8MDPmh30nml32LvcxHpMrwY4dERRTaTCEcEXUf6vjNQtpucYhVYRDZ3Pc0Quf08BvjCBfX1W1eHpZypN93n6sQ9O/gI=&lt;/diagram&gt;&lt;/mxfile&gt;" style="background-color: rgb(255, 255, 255);"><defs/><g><path d="M 7 7 L 44.15 81.3" fill="none" stroke="rgb(0, 0, 0)" stroke-miterlimit="10" pointer-events="stroke"/><path d="M 46.5 86 L 40.24 81.3 L 44.15 81.3 L 46.5 78.17 Z" fill="rgb(0, 0, 0)" stroke="rgb(0, 0, 0)" stroke-miterlimit="10" pointer-events="all"/><path d="M 47 87 L 82.5 51.5" fill="none" stroke="rgb(0, 0, 0)" stroke-miterlimit="10" pointer-events="stroke"/><path d="M 86.21 47.79 L 83.73 55.22 L 82.5 51.5 L 78.78 50.27 Z" fill="rgb(0, 0, 0)" stroke="rgb(0, 0, 0)" stroke-miterlimit="10" pointer-events="all"/><path d="M 87 47 L 124.15 121.3" fill="none" stroke="rgb(0, 0, 0)" stroke-miterlimit="10" pointer-events="stroke"/><path d="M 126.5 126 L 120.24 121.3 L 124.15 121.3 L 126.5 118.17 Z" fill="rgb(0, 0, 0)" stroke="rgb(0, 0, 0)" stroke-miterlimit="10" pointer-events="all"/><path d="M 127 127 L 162.5 91.5" fill="none" stroke="rgb(0, 0, 0)" stroke-miterlimit="10" pointer-events="stroke"/><path d="M 166.21 87.79 L 163.73 95.22 L 162.5 91.5 L 158.78 90.27 Z" fill="rgb(0, 0, 0)" stroke="rgb(0, 0, 0)" stroke-miterlimit="10" pointer-events="all"/><path d="M 167 87 L 203.02 132.03" fill="none" stroke="rgb(0, 0, 0)" stroke-miterlimit="10" pointer-events="stroke"/><path d="M 206.3 136.13 L 199.2 132.85 L 203.02 132.03 L 204.66 128.47 Z" fill="rgb(0, 0, 0)" stroke="rgb(0, 0, 0)" stroke-miterlimit="10" pointer-events="all"/><path d="M 207 137 L 243.84 72.53" fill="none" stroke="rgb(0, 0, 0)" stroke-miterlimit="10" pointer-events="stroke"/><path d="M 246.45 67.97 L 246.01 75.78 L 243.84 72.53 L 239.93 72.31 Z" fill="rgb(0, 0, 0)" stroke="rgb(0, 0, 0)" stroke-miterlimit="10" pointer-events="all"/><path d="M 247 67 L 282.5 102.5" fill="none" stroke="rgb(0, 0, 0)" stroke-miterlimit="10" pointer-events="stroke"/><path d="M 286.21 106.21 L 278.78 103.73 L 282.5 102.5 L 283.73 98.78 Z" fill="rgb(0, 0, 0)" stroke="rgb(0, 0, 0)" stroke-miterlimit="10" pointer-events="all"/><path d="M 287 107 L 323.47 52.3" fill="none" stroke="rgb(0, 0, 0)" stroke-miterlimit="10" pointer-events="stroke"/><path d="M 326.38 47.93 L 325.41 55.7 L 323.47 52.3 L 319.58 51.81 Z" fill="rgb(0, 0, 0)" stroke="rgb(0, 0, 0)" stroke-miterlimit="10" pointer-events="all"/><path d="M 367 7 L 404.15 81.3" fill="none" stroke="rgb(0, 0, 0)" stroke-miterlimit="10" pointer-events="stroke"/><path d="M 406.5 86 L 400.24 81.3 L 404.15 81.3 L 406.5 78.17 Z" fill="rgb(0, 0, 0)" stroke="rgb(0, 0, 0)" stroke-miterlimit="10" pointer-events="all"/><path d="M 407 87 L 442.5 51.5" fill="none" stroke="rgb(0, 0, 0)" stroke-miterlimit="10" pointer-events="stroke"/><path d="M 446.21 47.79 L 443.73 55.22 L 442.5 51.5 L 438.78 50.27 Z" fill="rgb(0, 0, 0)" stroke="rgb(0, 0, 0)" stroke-miterlimit="10" pointer-events="all"/><path d="M 447 47 L 484.15 121.3" fill="none" stroke="rgb(0, 0, 0)" stroke-miterlimit="10" pointer-events="stroke"/><path d="M 486.5 126 L 480.24 121.3 L 484.15 121.3 L 486.5 118.17 Z" fill="rgb(0, 0, 0)" stroke="rgb(0, 0, 0)" stroke-miterlimit="10" pointer-events="all"/><path d="M 487 127 L 522.5 91.5" fill="none" stroke="rgb(0, 0, 0)" stroke-miterlimit="10" pointer-events="stroke"/><path d="M 526.21 87.79 L 523.73 95.22 L 522.5 91.5 L 518.78 90.27 Z" fill="rgb(0, 0, 0)" stroke="rgb(0, 0, 0)" stroke-miterlimit="10" pointer-events="all"/><path d="M 527 87 L 563.02 132.03" fill="none" stroke="rgb(0, 0, 0)" stroke-miterlimit="10" pointer-events="stroke"/><path d="M 566.3 136.13 L 559.2 132.85 L 563.02 132.03 L 564.66 128.47 Z" fill="rgb(0, 0, 0)" stroke="rgb(0, 0, 0)" stroke-miterlimit="10" pointer-events="all"/><path d="M 567 137 L 603.84 72.53" fill="none" stroke="rgb(0, 0, 0)" stroke-miterlimit="10" pointer-events="stroke"/><path d="M 606.45 67.97 L 606.01 75.78 L 603.84 72.53 L 599.93 72.31 Z" fill="rgb(0, 0, 0)" stroke="rgb(0, 0, 0)" stroke-miterlimit="10" pointer-events="all"/><path d="M 607 67 L 644.15 141.3" fill="none" stroke="rgb(0, 0, 0)" stroke-miterlimit="10" pointer-events="stroke"/><path d="M 646.5 146 L 640.24 141.3 L 644.15 141.3 L 646.5 138.17 Z" fill="rgb(0, 0, 0)" stroke="rgb(0, 0, 0)" stroke-miterlimit="10" pointer-events="all"/><path d="M 647 147 L 684.63 52.91" fill="none" stroke="rgb(0, 0, 0)" stroke-miterlimit="10" pointer-events="stroke"/><path d="M 686.58 48.04 L 687.23 55.84 L 684.63 52.91 L 680.74 53.24 Z" fill="rgb(0, 0, 0)" stroke="rgb(0, 0, 0)" stroke-miterlimit="10" pointer-events="all"/><path d="M 127 167 L 164.15 241.3" fill="none" stroke="rgb(0, 0, 0)" stroke-miterlimit="10" pointer-events="stroke"/><path d="M 166.5 246 L 160.24 241.3 L 164.15 241.3 L 166.5 238.17 Z" fill="rgb(0, 0, 0)" stroke="rgb(0, 0, 0)" stroke-miterlimit="10" pointer-events="all"/><path d="M 167 247 L 202.5 211.5" fill="none" stroke="rgb(0, 0, 0)" stroke-miterlimit="10" pointer-events="stroke"/><path d="M 206.21 207.79 L 203.73 215.22 L 202.5 211.5 L 198.78 210.27 Z" fill="rgb(0, 0, 0)" stroke="rgb(0, 0, 0)" stroke-miterlimit="10" pointer-events="all"/><path d="M 207 207 L 244.99 320.96" fill="none" stroke="rgb(0, 0, 0)" stroke-miterlimit="10" pointer-events="stroke"/><path d="M 246.65 325.94 L 241.11 320.41 L 244.99 320.96 L 247.75 318.19 Z" fill="rgb(0, 0, 0)" stroke="rgb(0, 0, 0)" stroke-miterlimit="10" pointer-events="all"/><path d="M 247 327 L 284.15 252.7" fill="none" stroke="rgb(0, 0, 0)" stroke-miterlimit="10" pointer-events="stroke"/><path d="M 286.5 248 L 286.5 255.83 L 284.15 252.7 L 280.24 252.7 Z" fill="rgb(0, 0, 0)" stroke="rgb(0, 0, 0)" stroke-miterlimit="10" pointer-events="all"/><path d="M 287 247 L 323.02 292.03" fill="none" stroke="rgb(0, 0, 0)" stroke-miterlimit="10" pointer-events="stroke"/><path d="M 326.3 296.13 L 319.2 292.85 L 323.02 292.03 L 324.66 288.47 Z" fill="rgb(0, 0, 0)" stroke="rgb(0, 0, 0)" stroke-miterlimit="10" pointer-events="all"/><path d="M 327 297 L 363.84 232.53" fill="none" stroke="rgb(0, 0, 0)" stroke-miterlimit="10" pointer-events="stroke"/><path d="M 366.45 227.97 L 366.01 235.78 L 363.84 232.53 L 359.93 232.31 Z" fill="rgb(0, 0, 0)" stroke="rgb(0, 0, 0)" stroke-miterlimit="10" pointer-events="all"/><path d="M 367 227 L 402.5 262.5" fill="none" stroke="rgb(0, 0, 0)" stroke-miterlimit="10" pointer-events="stroke"/><path d="M 406.21 266.21 L 398.78 263.73 L 402.5 262.5 L 403.73 258.78 Z" fill="rgb(0, 0, 0)" stroke="rgb(0, 0, 0)" stroke-miterlimit="10" pointer-events="all"/><path d="M 407 267 L 443.47 212.3" fill="none" stroke="rgb(0, 0, 0)" stroke-miterlimit="10" pointer-events="stroke"/><path d="M 446.38 207.93 L 445.41 215.7 L 443.47 212.3 L 439.58 211.81 Z" fill="rgb(0, 0, 0)" stroke="rgb(0, 0, 0)" stroke-miterlimit="10" pointer-events="all"/><path d="M 127 127 L 247 127" fill="none" stroke="#ff00ff" stroke-miterlimit="10" stroke-dasharray="3 3" pointer-events="stroke"/><path d="M 487 127 L 667 127" fill="none" stroke="#ff00ff" stroke-miterlimit="10" stroke-dasharray="3 3" pointer-events="stroke"/><rect x="157" y="137" width="100" height="30" fill="none" stroke="none" pointer-events="all"/><g transform="translate(-0.5 -0.5)"><switch><foreignObject pointer-events="none" width="100%" height="100%" requiredFeatures="http://www.w3.org/TR/SVG11/feature#Extensibility" style="overflow: visible; text-align: left;"><div xmlns="http://www.w3.org/1999/xhtml" style="display: flex; align-items: unsafe center; justify-content: unsafe center; width: 98px; height: 1px; padding-top: 152px; margin-left: 158px;"><div data-drawio-colors="color: rgb(0, 0, 0); " style="box-sizing: border-box; font-size: 0px; text-align: center;"><div style="display: inline-block; font-size: 12px; font-family: Helvetica; color: rgb(0, 0, 0); line-height: 1.2; pointer-events: all; white-space: normal; overflow-wrap: normal;">假突破+低点抬高</div></div></div></foreignObject><text x="207" y="156" fill="rgb(0, 0, 0)" font-family="Helvetica" font-size="12px" text-anchor="middle">假突破+低点抬高</text></switch></g><rect x="527" y="137" width="80" height="30" fill="none" stroke="none" pointer-events="all"/><g transform="translate(-0.5 -0.5)"><switch><foreignObject pointer-events="none" width="100%" height="100%" requiredFeatures="http://www.w3.org/TR/SVG11/feature#Extensibility" style="overflow: visible; text-align: left;"><div xmlns="http://www.w3.org/1999/xhtml" style="display: flex; align-items: unsafe center; justify-content: unsafe center; width: 78px; height: 1px; padding-top: 152px; margin-left: 528px;"><div data-drawio-colors="color: rgb(0, 0, 0); " style="box-sizing: border-box; font-size: 0px; text-align: center;"><div style="display: inline-block; font-size: 12px; font-family: Helvetica; color: rgb(0, 0, 0); line-height: 1.2; pointer-events: all; white-space: normal; overflow-wrap: normal;">2次假突破</div></div></div></foreignObject><text x="567" y="156" fill="rgb(0, 0, 0)" font-family="Helvetica" font-size="12px" text-anchor="middle">2次假突破</text></switch></g><rect x="457" y="227" width="80" height="30" fill="none" stroke="none" pointer-events="all"/><g transform="translate(-0.5 -0.5)"><switch><foreignObject pointer-events="none" width="100%" height="100%" requiredFeatures="http://www.w3.org/TR/SVG11/feature#Extensibility" style="overflow: visible; text-align: left;"><div xmlns="http://www.w3.org/1999/xhtml" style="display: flex; align-items: unsafe center; justify-content: unsafe center; width: 78px; height: 1px; padding-top: 242px; margin-left: 458px;"><div data-drawio-colors="color: rgb(0, 0, 0); " style="box-sizing: border-box; font-size: 0px; text-align: center;"><div style="display: inline-block; font-size: 12px; font-family: Helvetica; color: rgb(0, 0, 0); line-height: 1.2; pointer-events: all; white-space: normal; overflow-wrap: normal;">2次低点抬高</div></div></div></foreignObject><text x="497" y="246" fill="rgb(0, 0, 0)" font-family="Helvetica" font-size="12px" text-anchor="middle">2次低点抬高</text></switch></g></g><switch><g requiredFeatures="http://www.w3.org/TR/SVG11/feature#Extensibility"/><a transform="translate(0,-5)" xlink:href="https://www.drawio.com/doc/faq/svg-export-text-problems" target="_blank"><text text-anchor="middle" font-size="10px" x="50%" y="100%">Text is not SVG - cannot display</text></a></switch></svg>